<?xml version="1.0" encoding="UTF-8"?>
<svg xmlns="http://www.w3.org/2000/svg" version="1.1" viewBox="0 0 238.5 228.4">
  <defs>
  </defs>
  <!-- Generator: Adobe Illustrator 28.7.1, SVG Export Plug-In . SVG Version: 1.2.0 Build 142)  -->
  <g>
    <g id="Layer_1">
      <path class="cls-1" d="M182.6,226.4c-2.2,0-4.4-.5-6.4-1.5l-48.8-23.4c-2.5-1.2-5.3-1.8-8.1-1.8s-5.6.6-8.1,1.8l-48.8,23.4c-2,1-4.2,1.5-6.4,1.5-4.2,0-8.2-1.8-11.1-5-2.8-3.1-4.1-7.2-3.6-11.4l6-55.3c.6-5.5-1.2-10.9-5-14.9L6,101.4c-3.7-3.9-4.9-9.3-3.4-14.4,1.6-5.1,5.6-8.9,10.8-10.1l53.9-12.4c5-1.2,9.4-4.4,12-8.8l27-46.2c2.7-4.6,7.5-7.3,12.8-7.3s10.1,2.7,12.8,7.3l27,46.2c2.6,4.5,7,7.7,12,8.8l53.9,12.4c5.2,1.2,9.3,5,10.8,10.1s.3,10.5-3.4,14.4l-36.2,38.4c-3.8,4-5.6,9.4-5,14.9l6,55.3c.5,4.2-.8,8.3-3.6,11.4-2.8,3.2-6.9,5-11.1,5h0Z"/>
    </g>
  </g>
</svg>